<svg width="140" height="44" viewBox="0 0 140 44" fill="none" xmlns="http://www.w3.org/2000/svg">
<path d="M73.4416 6.51548C79.024 6.51548 82.7415 11.022 81.8949 16.4723H69.0309C69.3651 19.0452 71.2695 20.5488 73.4411 20.5488C75.6128 20.5488 76.8281 19.9119 77.2838 18.5106H81.7945C81.0738 22.1505 78.0974 24.1906 73.5081 24.1906C68.2289 24.1906 64.4867 20.4484 64.4867 15.3361C64.4867 10.2237 68.3628 6.51501 73.4411 6.51501L73.4416 6.51548ZM73.4081 9.99033C71.3699 9.99033 69.7994 11.1596 69.2317 13.1644H77.3847C77.2842 11.36 75.6472 9.99033 73.4086 9.99033H73.4081ZM120.754 18.3437H125.031C125.218 19.9518 126.219 20.6492 128.339 20.6492C130.31 20.6492 131.146 19.8472 131.146 18.6779C131.146 17.9429 130.571 17.5621 129.609 17.2413C128.666 16.927 127.404 16.7067 126.134 16.4059C123.595 15.8042 120.988 14.8019 120.988 11.5943C120.988 8.95448 123.361 6.51548 127.604 6.51548C132.149 6.51548 134.731 8.32497 135.089 11.7612H130.879C130.648 10.459 129.479 9.8569 127.604 9.8569C126.034 9.8569 125.265 10.592 125.265 11.3605C125.265 12.129 125.823 12.527 126.802 12.8306C127.762 13.1286 129.041 13.2983 130.31 13.5991C132.883 14.1672 135.489 15.2031 135.489 18.5775C135.489 21.7516 132.65 24.1241 128.272 24.1241C123.895 24.1241 120.906 21.9534 120.754 18.3437ZM102.01 17.7086V6.81582H106.621V16.8062C106.621 18.9778 107.857 20.2475 109.829 20.2475C112.368 20.2475 113.939 18.0089 113.939 14.1998V6.81535H118.583V23.8224H114.206V21.1495C113.204 22.8534 111.098 24.1232 108.459 24.1232C104.75 24.1232 102.01 21.7506 102.01 17.7076L102.01 17.7086ZM45.4749 6.81628H49.8187V9.32224C51.0215 7.78519 53.1267 6.51548 55.733 6.51548C59.5087 6.51548 62.3155 8.888 62.3155 12.8975V23.8238H57.7378V13.8669C57.7378 11.6952 56.4011 10.392 54.4298 10.392C51.7235 10.392 50.0526 12.6307 50.0526 16.4398V23.8242H45.4749V6.81721V6.81628ZM34.4487 6.51548C40.0311 6.51548 43.7486 11.022 42.902 16.4723H30.038C30.3722 19.0452 32.2766 20.5488 34.4482 20.5488C36.6199 20.5488 37.8352 19.9119 38.2909 18.5106H42.8016C42.0809 22.1505 39.1045 24.1906 34.5152 24.1906C29.236 24.1906 25.4938 20.4484 25.4938 15.3361C25.4938 10.2237 29.3699 6.51501 34.4482 6.51501L34.4487 6.51548ZM12.1625 24.1241C5.8139 24.1241 0 19.6134 0 12.062C0 4.97843 5.1458 0 12.229 0C17.9759 0 22.4866 3.34143 22.8879 7.9521H18.0429C17.6751 5.61305 15.2696 4.00952 12.229 4.00952C7.91862 4.00952 4.94496 7.21705 4.94496 12.062C4.94496 16.907 8.05252 20.0811 12.3294 20.0811C15.9381 20.0811 18.3437 18.0094 18.7114 15.0692H12.0955V11.1931H23.2556V23.8233H19.1457V20.8496C17.6756 22.754 15.1027 24.1241 12.1625 24.1241ZM34.4152 9.99033C32.377 9.99033 30.8065 11.1596 30.2388 13.1644H38.3918C38.2913 11.36 36.6543 9.99033 34.4157 9.99033H34.4152ZM101.275 0.467716L94.2917 11.5274L102.311 23.8233H96.6307L91.4849 15.8042L86.3726 23.8233H80.993L88.8116 11.6943L81.6945 0.467716H87.308L90.5156 5.54657L90.1478 8.98795L90.4486 9.08838L95.8613 0.467716H101.274H101.275ZM136.926 0.434241H137.628L138.263 1.7709C138.363 2.23862 138.429 2.5729 138.429 2.5729C138.429 2.5729 138.496 2.23862 138.697 1.7709L139.298 0.434241H140V3.20752H139.499V1.13581C139.499 1.13581 139.365 1.40315 139.198 1.83739L138.63 3.20752H138.262L137.694 1.83739C137.527 1.40315 137.427 1.13581 137.427 1.13581V3.20752H136.925V0.434241H136.926ZM134.955 0.901957H134.12V0.434241H136.358V0.901957H135.489V3.20752H134.955V0.901957H134.955Z" fill="#C92A54"/>
<path d="M25.4946 40.2282C25.4946 39.1445 26.2418 38.6396 27.9671 38.4606L29.1666 38.3346V38.103C29.1666 37.3243 28.5776 36.8301 27.7253 36.8301C26.8731 36.8301 26.3366 37.3034 26.2208 38.103H25.5369C25.6843 37.0718 26.484 36.241 27.7253 36.241C28.9667 36.241 29.8296 36.9881 29.8296 38.1556V41.6276H29.1666V40.5337C28.9774 41.1967 28.1986 41.7118 27.3255 41.7118C26.1999 41.7118 25.4951 41.133 25.4951 40.2282H25.4946ZM27.3674 41.1223C28.4404 41.1223 29.1666 40.3124 29.1666 39.1445V38.8711L28.0094 38.9971C26.7155 39.1445 26.1683 39.4392 26.1683 40.2068C26.1683 40.7643 26.6314 41.1223 27.3678 41.1223H27.3674Z" fill="#494949"/>
<path d="M33.4165 37.945C33.4165 35.6724 34.8159 34.1786 36.9411 34.1786C38.6562 34.1786 39.7502 35.1043 39.9394 36.5878H39.2448C39.0556 35.4516 38.1401 34.7993 36.9406 34.7993C35.2469 34.7993 34.1208 36.0513 34.1208 37.945C34.1208 39.8386 35.2464 41.0907 36.9509 41.0907C38.4554 41.0907 39.4024 40.0278 39.4024 38.5233H36.5933V37.9343H40.0547V41.6272H39.3917V40.291C39.0342 41.1748 38.0555 41.7113 36.9192 41.7113C34.8675 41.7113 33.416 40.2803 33.416 37.945H33.4165Z" fill="#494949"/>
<path d="M41.4648 34.1786H42.1381V41.6272H41.4648V34.1786Z" fill="#494949"/>
<path d="M43.3169 38.9762C43.3169 37.3768 44.4323 36.2405 45.9577 36.2405C47.4831 36.2405 48.5878 37.3768 48.5878 38.9762C48.5878 40.5755 47.4724 41.7118 45.9577 41.7118C44.4429 41.7118 43.3169 40.5755 43.3169 38.9762ZM45.9572 41.1223C47.0935 41.1223 47.9141 40.2384 47.9141 38.9762C47.9141 37.7139 47.0935 36.8301 45.9572 36.8301C44.8209 36.8301 44.0003 37.7139 44.0003 38.9762C44.0003 40.2384 44.8209 41.1223 45.9572 41.1223Z" fill="#494949"/>
<path d="M50.4496 40.5541V41.6272H49.7866V34.1786H50.4496V37.3982C50.776 36.7036 51.5859 36.241 52.4488 36.241C54.0058 36.241 55.058 37.3457 55.058 38.9766C55.058 40.6076 54.0058 41.7123 52.4488 41.7123C51.5859 41.7123 50.776 41.239 50.4496 40.5551V40.5541ZM52.4172 41.1223C53.5535 41.1223 54.3847 40.2384 54.3847 38.9762C54.3847 37.7139 53.5535 36.8301 52.4172 36.8301C51.2809 36.8301 50.4603 37.7139 50.4603 38.9762C50.4603 40.2384 51.2809 41.1223 52.4172 41.1223Z" fill="#494949"/>
<path d="M55.9941 40.2282C55.9941 39.1445 56.7413 38.6396 58.4666 38.4606L59.6661 38.3346V38.103C59.6661 37.3243 59.0771 36.8301 58.2249 36.8301C57.3726 36.8301 56.8361 37.3034 56.7204 38.103H56.0365C56.1838 37.0718 56.9835 36.241 58.2249 36.241C59.4662 36.241 60.3291 36.9881 60.3291 38.1556V41.6276H59.6661V40.5337C59.4769 41.1967 58.6982 41.7118 57.825 41.7118C56.6994 41.7118 55.9946 41.133 55.9946 40.2282H55.9941ZM57.8669 41.1223C58.9399 41.1223 59.6661 40.3124 59.6661 39.1445V38.8711L58.5089 38.9971C57.215 39.1445 56.6678 39.4392 56.6678 40.2068C56.6678 40.7643 57.1309 41.1223 57.8673 41.1223H57.8669Z" fill="#494949"/>
<path d="M61.812 36.3247H62.475V37.5135C62.7907 36.7878 63.5271 36.2405 64.4951 36.2405C65.5998 36.2405 66.4101 36.9138 66.4101 38.1342V41.6272H65.7369V38.2709C65.7369 37.3238 65.2111 36.8398 64.3798 36.8398C63.2226 36.8398 62.4755 37.8394 62.4755 39.3649V41.6267H61.8125V36.3242L61.812 36.3247Z" fill="#494949"/>
<path d="M68.0824 40.165V36.8826H67.1567V36.3252H68.0824V34.9471H68.7454V36.3252H70.1448V36.8826H68.7454V40.1231C68.7454 40.7964 69.0718 41.112 69.5558 41.112C69.7557 41.112 69.9872 41.0702 70.1555 41.007V41.5858C69.9765 41.67 69.7138 41.7123 69.4925 41.7123C68.6612 41.7123 68.0829 41.1864 68.0829 40.1655L68.0824 40.165Z" fill="#494949"/>
<path d="M73.2061 37.945C73.2061 35.6306 74.6473 34.1786 76.7409 34.1786C78.4346 34.1786 79.5607 35.1991 79.729 36.5878H79.0241C78.8451 35.5357 77.9613 34.7993 76.7409 34.7993C75.0574 34.7993 73.9211 36.0197 73.9211 37.945C73.9211 39.8702 75.0574 41.0907 76.7409 41.0907C77.9822 41.0907 78.9084 40.2175 79.066 39.1654H79.7708C79.5816 40.5751 78.4239 41.7113 76.7409 41.7113C74.6575 41.7113 73.2061 40.2594 73.2061 37.945Z" fill="#494949"/>
<path d="M80.5181 38.9762C80.5181 37.3768 81.6334 36.2405 83.1588 36.2405C84.6843 36.2405 85.7889 37.3768 85.7889 38.9762C85.7889 40.5755 84.6736 41.7118 83.1588 41.7118C81.6441 41.7118 80.5181 40.5755 80.5181 38.9762ZM83.1588 41.1223C84.2951 41.1223 85.1157 40.2384 85.1157 38.9762C85.1157 37.7139 84.2951 36.8301 83.1588 36.8301C82.0226 36.8301 81.202 37.7139 81.202 38.9762C81.202 40.2384 82.0226 41.1223 83.1588 41.1223Z" fill="#494949"/>
<path d="M94.9213 38.0714V41.6276H94.2583V38.2086C94.2583 37.3671 93.7953 36.8408 93.017 36.8408C91.9542 36.8408 91.2809 37.8404 91.2809 39.1556V41.6281H90.618V38.209C90.618 37.3675 90.1656 36.8412 89.3766 36.8412C88.3138 36.8412 87.6513 37.8408 87.6513 39.1561V41.6286H86.9883V36.3261H87.6513V37.5149C87.9353 36.8101 88.5769 36.2419 89.4714 36.2419C90.366 36.2419 91.0392 36.7785 91.1759 37.6098C91.5232 36.8101 92.2173 36.2419 93.1011 36.2419C94.2058 36.2419 94.9213 36.9677 94.9213 38.0728V38.0714Z" fill="#494949"/>
<path d="M96.4155 36.3247H97.0785V37.3875C97.4044 36.6929 98.2148 36.2405 99.0777 36.2405C100.635 36.2405 101.687 37.3452 101.687 38.9762C101.687 40.6071 100.635 41.7118 99.0777 41.7118C98.2148 41.7118 97.4049 41.2385 97.0785 40.5546V43.5427H96.4155V36.3252V36.3247ZM99.0456 41.1223C100.182 41.1223 101.002 40.2384 101.002 38.9762C101.002 37.7139 100.182 36.8301 99.0456 36.8301C97.9093 36.8301 97.078 37.7139 97.078 38.9762C97.078 40.2384 97.9093 41.1223 99.0456 41.1223Z" fill="#494949"/>
<path d="M102.623 40.2282C102.623 39.1445 103.37 38.6396 105.095 38.4606L106.295 38.3346V38.103C106.295 37.3243 105.705 36.8301 104.853 36.8301C104.001 36.8301 103.465 37.3034 103.349 38.103H102.665C102.812 37.0718 103.612 36.241 104.853 36.241C106.095 36.241 106.958 36.9881 106.958 38.1556V41.6276H106.295V40.5337C106.105 41.1967 105.327 41.7118 104.453 41.7118C103.328 41.7118 102.623 41.133 102.623 40.2282H102.623ZM104.495 41.1223C105.568 41.1223 106.295 40.3124 106.295 39.1445V38.8711L105.137 38.9971C103.843 39.1445 103.296 39.4392 103.296 40.2068C103.296 40.7643 103.759 41.1223 104.496 41.1223H104.495Z" fill="#494949"/>
<path d="M108.44 36.3247H109.103V37.5135C109.419 36.7878 110.156 36.2405 111.124 36.2405C112.228 36.2405 113.038 36.9138 113.038 38.1342V41.6272H112.365V38.2709C112.365 37.3238 111.839 36.8398 111.008 36.8398C109.851 36.8398 109.103 37.8394 109.103 39.3649V41.6267H108.44V36.3242V36.3247Z" fill="#494949"/>
<path d="M115.858 41.6904L113.796 36.3247H114.511L116.205 40.8066L117.889 36.3247H118.583L115.806 43.5422H115.122L115.858 41.6904H115.858Z" fill="#494949"/>
</svg>
